#!OML:ASF F:\VICON\USERDATA\INSTALL\rory3\rory3.ASF
:FULLY-SPECIFIED
:DEGREES
106
root 0.5427576114518335 17.735071326610875 48.769010482101294 -3.6039096169733003 0.6383710714280635 0.10002738750182649
lfemur 2.07483321682935 -3.853735776480257 -25.625842338730045
ltibia 21.900766680482274
lfoot -18.530019168089666 2.9431068609945887
ltoes 3.465280976316077
rfemur -27.567455118350075 -1.7562271533959408 21.72568763649844
rtibia 48.003029296285554
rfoot -6.725433332485577 -10.607994529056045
rtoes 3.9626147581588285
lowerback 11.786643559120458 -0.15307505605289914 -2.635180685770079
upperback 0.637834701271311 -0.3580388750971347 1.2446333161788987
thorax -5.913779386196571 -0.0904918801630463 2.974730303190408
lowerneck -17.104447815859984 -3.389266908187842 -3.275090936269113
upperneck 19.451538344739262 -4.633589387596202 3.653651102019032
head 8.947195222399358 -2.0263273897057945 1.0401529959510027
lclavicle 2.9911140334887e-16 5.5314561548732994e-17
lhumerus -25.648897544421025 -1.4240959422038384 81.50756337381588
lradius 26.945713651108612
lwrist 9.771851849710904
lhand -28.935685628477877 20.842940469502008
lfingers 7.125020000000001
lthumb -2.518992715831864 50.15871607626454
rclavicle 2.991114032014823e-16 5.5314561443310005e-17
rhumerus -29.589691367907427 -17.42889803029968 -78.84177405213143
rradius 30.2823215382723
rwrist -1.2123172200092829
rhand -18.467825364501476 22.29097709854793
rfingers 7.125020000000001
rthumb 7.539500997065572 -8.109930850256726
107
root 0.5067471392456838 17.733141004386553 48.839614343898255 -3.080575805267806 1.144375234620429 0.32317622110017696
lfemur 4.986254116461924 -3.6613225030611583 -25.75201828066378
ltibia 19.350375889757707
lfoot -17.913615063722307 2.5921942115115604
ltoes 0.5055371837594151
rfemur -27.271484610166397 0.32818152283849855 20.907632687404522
rtibia 35.57356629444883
rfoot -7.137239019422012 -11.92764619766306
rtoes 3.5583322760046396
lowerback 11.667904933802058 -0.37210496961822537 -2.8477863057979436
upperback 0.6357403170431037 -0.6488410240714677 1.3083683457399982
thorax -5.7972108610065485 -0.2236891487632602 3.1236615154689553
lowerneck -17.212058127661766 -3.3483398104447324 -3.2820516853050474
upperneck 19.39147987243924 -4.566785635785642 3.6042326212635576
head 8.934516905671424 -2.004849920490873 1.0334607502594595
lclavicle 2.991114033529385e-16 5.531456155153771e-17
lhumerus -24.225140633408834 -2.267011421597997 81.15281932088241
lradius 28.318365993534186
lwrist 10.293689125930399
lhand -29.800630459305818 18.620452347129433
lfingers 7.125020000000001
lthumb -3.2040247851291146 48.265578790947096
rclavicle 2.991114032035206e-16 5.531456144469378e-17
rhumerus -29.73013689919759 -17.216969344604163 -78.78722405279042
rradius 30.293201881082652
rwrist -1.1678015028107542
rhand -18.413614182657774 22.578200097436806
rfingers 7.125020000000001
rthumb 7.609418349128918 -7.8224689977203195
108
root 0.46262568538022625 17.704856640352435 48.927261809870046 -2.650678094373399 1.3550921876713367 0.24863645017192093
lfemur 7.797906776292961 -3.378573151789994 -25.44802559541337
ltibia 17.07998641589578
lfoot -16.83401632758103 1.831114679726344
ltoes 0.2807845458526774
rfemur -26.205627392721727 2.641194553540045 20.271417632199476
rtibia 23.626445716028275
rfoot -8.85383190911634 -13.786206686392807
rtoes 2.1746921355491104
lowerback 11.461820371848946 -0.5746818343671661 -2.9548249908878477
upperback 0.6041537125855048 -0.9284638705592789 1.4008033749738749
thorax -5.668885133294456 -0.34288602577556426 3.4037809326747297
lowerneck -17.29597327607969 -3.2792940940469393 -3.2383123625433257
upperneck 19.431967197504434 -4.431355866469998 3.4957364068471852
head 8.956290597516444 -1.958696754289345 1.0121155912635733
lclavicle 2.9911140335311746e-16 5.531456155125734e-17
lhumerus -23.138810649838774 -2.8444663810007804 80.98677888028955
lradius 29.616409228625027
lwrist 10.747082138589036
lhand -30.666503451955766 16.308979940062095
lfingers 7.125020000000001
lthumb -3.897664100493274 46.2815844462938
rclavicle 2.991114032019632e-16 5.5314561443127026e-17
rhumerus -29.906133665724997 -17.268035006439234 -78.52929356115416
rradius 30.118296696004865
rwrist -0.7575289774541889
rhand -18.375316279129137 22.794474785437618
rfingers 7.125020000000001
rthumb 7.658339520135518 -7.600364571094928
109
root 0.41380764682276683 17.685858191264774 49.00542123365524 -2.3612615428025276 1.5909290596240684 0.2536493158220723
lfemur 10.672917832450025 -3.2393323646992798 -25.10835061704634
ltibia 15.665470035034456
lfoot -15.393872282865093 0.43559822752717015
ltoes -2.201473472916036
rfemur -25.49202351661825 3.49962676512637 20.189189630052468
rtibia 16.7339888276566
rfoot -11.496133438208268 -14.30667638295197
rtoes -0.10264225132882121
lowerback 11.171420887773625 -0.7530625397551622 -3.1088974870367876
upperback 0.5673105157686722 -1.202568327525075 1.4693046020736695
thorax -5.568435119459536 -0.4639894678355593 3.658646444989162
lowerneck -17.334295401947738 -3.1699901849118155 -3.14561207909997
upperneck 19.496214654301372 -4.210434533360555 3.2698840369499127
head 8.980202276492795 -1.8885399029422019 0.9601958594690441
lclavicle 2.991114033536631e-16 5.531456155104122e-17
lhumerus -22.287909453423154 -3.211677751924142 81.02207657133202
lradius 30.6487776926882
lwrist 11.23848076536785
lhand -29.506770315677286 19.889369348282518
lfingers 7.125020000000001
lthumb -2.809828961677374 49.851579362688405
rclavicle 2.991114032066368e-16 5.531456144578172e-17
rhumerus -29.89270335733496 -17.48565722375269 -78.22661931978976
rradius 29.88865357372753
rwrist -0.3557920159980603
rhand -18.3098877718174 23.026390235282815
rfingers 7.125020000000001
rthumb 7.702197244003388 -7.404226953777538
110
root 0.34862406742481855 17.614162967978594 49.25652092097497 -2.367945471755345 1.555258199444737 0.06893142030564547
lfemur 12.851751133038864 -3.5226648786961343 -24.554271961389922
ltibia 16.03993614750179
lfoot -14.724805295259875 -1.1086343713479407
ltoes -5.598074789641213
rfemur -25.657883619548937 2.273678369692313 21.480288188047236
rtibia 17.386236426044476
rfoot -11.787197962995112 -12.717278857567088
rtoes -2.415535155197147
lowerback 10.924825184236862 -0.8609853155508944 -3.3390865751035967
upperback 0.5168172848359036 -1.3761961644004386 1.5690679127829565
thorax -5.527822971881681 -0.5475548526295123 4.05607583249433
lowerneck -17.36345750826591 -3.0459773994154125 -3.0483882913328904
upperneck 19.619400821203367 -4.021210267800945 3.0886866790554235
head 9.031285031322131 -1.8284891962988172 0.9252388722007556
lclavicle 2.9911140335202267e-16 5.5314561548949087e-17
lhumerus -21.876199760717455 -3.3269081804929415 80.95520535968022
lradius 31.43564674874978
lwrist 11.54159141900795
lhand -30.44236145177543 17.561929831873776
lfingers 7.125020000000001
lthumb -3.693407171889458 47.64198654176435
rclavicle 2.9911140320468835e-16 5.5314561443462465e-17
rhumerus -29.895406803519766 -17.59785559506762 -78.07734015334492
rradius 29.64799382037225
rwrist 0.35540598490459896
rhand -18.226640272166623 23.273823348709943
rfingers 7.125020000000001
rthumb 7.799023734015087 -7.109552453227948
111
root 0.27482557290636045 17.527382561801645 49.51431325387083 -2.6205921815805775 1.550062944295541 0.0038934052848618173
lfemur 14.449689149958743 -4.335034027757979 -24.235515437850584
ltibia 17.90484752202288
lfoot -14.813946075196576 -2.104286221861326
ltoes -13.008010528375413
rfemur -26.813912891275976 0.8408973293296946 22.760864911745273
rtibia 22.75252555903959
rfoot -9.881613224276636 -11.200109657188992
rtoes -4.169083477872194
lowerback 10.733936074941015 -0.8952350832892109 -3.5897657043707554
upperback 0.4906498798357289 -1.4747486817004571 1.633287791038432
thorax -5.521562542762285 -0.5954064727782359 4.4569474983313375
lowerneck -17.3968739405656 -2.9330562318342155 -2.9329216101105824
upperneck 19.781327760694886 -3.8278889848661373 2.8622721053777425
head 9.108330008946615 -1.7655140027286305 0.8679701452373096
lclavicle 2.991114033591489e-16 5.531456155298954e-17
lhumerus -21.860066962019783 -3.2051657460039986 81.0007282516484
lradius 31.865283772268462
lwrist 11.518245788144434
lhand -30.09559570436533 19.461016984930172
lfingers 7.125020000000001
lthumb -3.4389338433068817 49.21013239064896
rclavicle 2.991114032062545e-16 5.531456144353779e-17
rhumerus -30.11371532678787 -17.71473624659587 -78.10692977446276
rradius 29.544290632133247
rwrist 1.1730666923179989
rhand -18.184031455885027 23.34425917845586
rfingers 7.125020000000001
rthumb 7.832121693308315 -7.0210779576253985
112
root 0.19784523862736803 17.508328192135806 48.76994681614735 -3.0463796383895914 1.5827178962556459 -0.5782232196280814
lfemur 14.57763208232129 -5.5530040770126625 -23.709669868448554
ltibia 21.736265113627248
lfoot -12.718127584763163 -3.7146454861323392
ltoes -20.866960863044753
rfemur -26.86953449589233 0.8744582585194769 24.0070012694618
rtibia 27.25344771799542
rfoot -6.984172543056742 -9.426101175366608
rtoes -3.4660169063818422
lowerback 10.50730757460973 -0.8876469979436323 -3.142046822311265
upperback 0.46079225346583935 -1.4860798355315914 1.7796975829352286
thorax -5.513154052319243 -0.6178242195005808 4.4210462583312315
lowerneck -17.424698411209484 -2.8481150730417433 -2.799621273212931
upperneck 20.010986941171442 -3.681001322005989 2.6577210026963116
head 9.215356315839585 -1.7164992494396498 0.8149063840488471
lclavicle 2.991114033631265e-16 5.5314561554793036e-17
lhumerus -22.551384586695697 -2.7046468790514857 81.12023983523461
lradius 31.881553495676137
lwrist 11.272857963800863
lhand -31.51455496933081 15.843010845981912
lfingers 7.125020000000001
lthumb -4.749979434014469 45.84174754865053
rclavicle 2.9911140320640427e-16 5.5314561442580783e-17
rhumerus -30.393933899574012 -17.93640248181016 -78.03863650616803
rradius 29.411262485931324
rwrist 1.6257725807788757
rhand -18.11130854945546 23.372358472353337
rfingers 7.125020000000001
rthumb 7.890618490968998 -6.98951927862359
